# xmcd
#
# Track frame offsets: 
#        150
#        13005
#        25439
#        36782
#        44407
#        65667
#        79334
#        96338
#        112096
#        127615
#        143579
#        163492
#        180497
#        192138
#        217841
#        239295
#        261350
#        281639
#        300610
#        316871
#
# Disc length: 4516 seconds
#
# Revision: 0
# Processed by: cddbd v1.5.2PL0 Copyright (c) Steve Scherf et al.
# Submitted via: ExactAudioCopy v1.1
#
DISCID=1c11a214
DTITLE=Various Artist - Soulful Christmas
DYEAR=2013
DGENRE=Soul
TTITLE0=Charles Brown - Please Come Home For Christmas
TTITLE1=Carla Thomas - Gee Whiz It's Christmas
TTITLE2=Otis Redding - Merry Christmas Baby
TTITLE3=Smokey Robinson and The Miracles - Let It Snow
TTITLE4=The Impressions - I Saw Mommy Kissing Santa Claus
TTITLE5=James Brown - Santa Claus Go Straight To The Ghetto
TTITLE6=The Flirtations - Christmas Time Is Here Again
TTITLE7=Marvin Gaye - I Want To Come Home For Christmas
TTITLE8=The emotions - What Do The Lonely Do At Christmas
TTITLE9=Donny Hathaway - This Christmas
TTITLE10=Alexander O'Neal - My Gift To You
TTITLE11=Lonnie Hill - Cold Cold Winter In The Ghetto
TTITLE12=Lou Rawls - Silver Bells
TTITLE13=The Whispers - Have Yourself A Merry Little Christmas
TTITLE14=Ann Sexton - Santa Claus Is Coming to Town
TTITLE15=Eugene Wilde - I Love Christmas
TTITLE16=Natasha Watts - You And Me This Christmas
TTITLE17=Boyz II Men Featuring Brian McKnight - Let It Snow
TTITLE18=Faith Evans - The Christmas Song
TTITLE19=Stephanie Mills - This Christmas
EXTD=
EXTT0=
EXTT1=
EXTT2=
EXTT3=
EXTT4=
EXTT5=
EXTT6=
EXTT7=
EXTT8=
EXTT9=
EXTT10=
EXTT11=
EXTT12=
EXTT13=
EXTT14=
EXTT15=
EXTT16=
EXTT17=
EXTT18=
EXTT19=
PLAYORDER=
